<?xml version="1.0" encoding="utf-8"?>
<!-- Generator: Adobe Illustrator 18.0.0, SVG Export Plug-In . SVG Version: 6.00 Build 0)  -->
<!DOCTYPE svg PUBLIC "-//W3C//DTD SVG 1.1//EN" "http://www.w3.org/Graphics/SVG/1.1/DTD/svg11.dtd">
<svg version="1.1" id="Ebene_1" xmlns="http://www.w3.org/2000/svg" xmlns:xlink="http://www.w3.org/1999/xlink" x="0px" y="0px"
	 viewBox="0 0 129.719 240.814" enable-background="new 0 0 129.719 240.814" xml:space="preserve">
<rect x="0" y="0" fill="#FF48B0" width="129.719" height="240.814"/>
<g>
	<defs>
		<rect id="SVGID_1_" x="0" y="0" width="129.719" height="240.814"/>
	</defs>
	<clipPath id="SVGID_2_">
		<use xlink:href="#SVGID_1_"  overflow="visible"/>
	</clipPath>
	<path clip-path="url(#SVGID_2_)" fill="#FFFFFF" d="M87.552,212.463H86.24l1.372-2.4l0.015,0.007l-0.03,0.608L87.552,212.463z
		 M89.194,213.497l0.03-1.034h-0.577v-3.525h-1.47l-2.257,3.78l0.105,0.779h2.482v1.065h1.14v-1.065H89.194z M81.358,214.562h2.909
		v-0.884h-0.818v-4.74h-0.742l-1.672,1.065l0.128,1.02l1.027-0.593v3.248h-0.832V214.562z M78.763,211.757
		c0,1.546-0.278,1.831-0.878,1.831c-0.616,0-0.893-0.255-0.893-1.831c0-1.515,0.277-1.808,0.893-1.808
		C78.485,209.949,78.763,210.22,78.763,211.757 M79.969,211.772c0-2.115-0.629-2.902-2.084-2.902c-1.485,0-2.092,0.787-2.092,2.902
		c0,2.018,0.607,2.865,2.077,2.865C79.332,214.637,79.969,213.79,79.969,211.772 M74.997,210.52c0-0.983-0.645-1.65-1.934-1.65
		c-0.765,0-1.41,0.24-1.875,0.592l0.292,1.005c0.413-0.292,0.863-0.495,1.358-0.495c0.63,0,0.885,0.278,0.885,0.668
		c0,0.832-1.14,1.778-2.49,3.113v0.809h3.734l0.022-1.087H72.83v-0.022C74.105,212.388,74.997,211.54,74.997,210.52 M65.464,212.305
		c0-1.11,0.233-1.41,0.878-1.41c0.638,0,0.871,0.3,0.871,1.41s-0.233,1.41-0.871,1.41S65.464,213.423,65.464,212.305
		 M68.419,212.305c0-1.665-0.629-2.37-2.077-2.37c-1.44,0-2.084,0.705-2.084,2.37c0,1.673,0.644,2.362,2.084,2.362
		C67.79,214.667,68.419,213.978,68.419,212.305 M60.597,214.953c-0.157,0-0.307-0.03-0.472-0.098l-0.09,0.825
		c0.225,0.097,0.495,0.142,0.772,0.142c0.78,0,1.335-0.39,1.658-1.319l1.552-4.485H62.78l-0.743,2.76l-0.142,0.585h-0.023
		l-0.195-0.57l-0.99-2.775H59.36l1.957,4.44l-0.022,0.06C61.145,214.863,60.912,214.953,60.597,214.953 M56.277,208.668
		l-1.162,0.052v5.842h1.162v-1.957h0.592l0.968,1.957h1.312l-1.282-2.482l1.237-2.062h-1.29l-0.945,1.642h-0.592V208.668z
		 M51.402,212.305c0-1.11,0.233-1.41,0.878-1.41c0.638,0,0.87,0.3,0.87,1.41s-0.232,1.41-0.87,1.41
		C51.642,213.715,51.402,213.423,51.402,212.305 M54.357,212.305c0-1.665-0.63-2.37-2.077-2.37c-1.44,0-2.085,0.705-2.085,2.37
		c0,1.673,0.645,2.362,2.085,2.362C53.727,214.667,54.357,213.978,54.357,212.305 M50.217,210.077l-0.03-1.139H45.95l-0.03,1.139
		h1.508v4.485h1.274v-4.485H50.217z"/>
	<path clip-path="url(#SVGID_2_)" fill="#FFFFFF" d="M109.321,204.452c-0.158,0-0.308-0.03-0.473-0.097l-0.09,0.824
		c0.225,0.097,0.495,0.142,0.773,0.142c0.78,0,1.335-0.39,1.657-1.319l1.553-4.485h-1.238l-0.742,2.76l-0.143,0.585h-0.022
		l-0.195-0.57l-0.99-2.775h-1.328l1.958,4.44l-0.023,0.06C109.868,204.362,109.636,204.452,109.321,204.452 M107.543,204.061v-2.925
		c0-1.132-0.63-1.701-1.53-1.701c-0.518,0-0.968,0.187-1.275,0.606c-0.24-0.412-0.63-0.606-1.2-0.606
		c-0.42,0-0.84,0.179-1.155,0.479l-0.188-0.427l-0.839,0.06v4.514h1.169v-3.255c0.135-0.21,0.405-0.345,0.683-0.345
		c0.405,0,0.661,0.195,0.661,0.66v2.94h1.161v-2.94c0-0.442,0.278-0.66,0.668-0.66c0.428,0,0.683,0.225,0.683,0.698v2.902H107.543z
		 M97.935,201.326c0.053-0.661,0.27-0.924,0.833-0.924c0.488,0,0.788,0.255,0.803,0.924H97.935z M99.023,204.145
		c0.578,0,1.103-0.12,1.485-0.293l-0.128-0.937c-0.389,0.15-0.786,0.226-1.214,0.226c-0.781,0-1.148-0.286-1.208-1.044h2.647
		c0.023-0.157,0.03-0.374,0.03-0.547c0-1.44-0.712-2.114-1.874-2.114c-1.365,0-2.002,0.846-2.002,2.294
		C96.759,203.319,97.456,204.145,99.023,204.145 M94.846,202.824c-0.105,0.188-0.345,0.383-0.773,0.383
		c-0.66,0-0.863-0.323-0.863-1.388c0-1.02,0.233-1.35,0.871-1.35c0.345,0,0.623,0.142,0.765,0.345V202.824z M96.008,204.061v-5.894
		l-1.162,0.06v0.998l0.015,0.599l-0.015,0.015c-0.3-0.27-0.683-0.412-1.111-0.412c-1.154,0-1.724,0.847-1.724,2.339
		c0,1.628,0.57,2.385,1.739,2.385c0.548,0,0.946-0.172,1.216-0.487l0.023,0.008l0.112,0.389H96.008z M90.174,202.681
		c0,0.293-0.361,0.534-0.758,0.534c-0.383,0-0.646-0.158-0.646-0.601c0-0.398,0.24-0.6,0.758-0.6c0.308,0,0.533,0.052,0.646,0.097
		V202.681z M90.436,204.061h0.892v-2.812c0-1.245-0.465-1.822-1.807-1.822c-0.586,0-1.103,0.105-1.56,0.3l0.097,0.929
		c0.42-0.172,0.75-0.247,1.253-0.247c0.622,0,0.863,0.21,0.863,0.668v0.262c-0.241-0.075-0.533-0.127-0.871-0.127
		c-1.035,0-1.619,0.577-1.619,1.417c0,1.02,0.547,1.507,1.409,1.507c0.518,0,0.953-0.187,1.231-0.517l0.022,0.008L90.436,204.061z
		 M87.173,199.637c-0.285-0.113-0.713-0.195-1.095-0.195c-1.455,0-2.077,0.847-2.077,2.355c0,1.59,0.712,2.354,2.054,2.354
		c0.488,0,0.893-0.097,1.163-0.262l-0.083-0.907c-0.24,0.112-0.525,0.173-0.825,0.173c-0.705,0-1.102-0.383-1.102-1.358
		c0-0.961,0.277-1.313,1.125-1.313c0.262,0,0.54,0.06,0.772,0.142L87.173,199.637z M81.083,199.391h0.023l0.15,0.592l0.54,1.928
		h-1.433l0.563-1.928L81.083,199.391z M82.411,204.061h1.41l-1.965-5.624h-1.508l-1.942,5.624h1.335l0.315-1.095h2.04
		L82.411,204.061z M76.103,199.637c-0.285-0.113-0.713-0.195-1.095-0.195c-1.455,0-2.077,0.847-2.077,2.355
		c0,1.59,0.712,2.354,2.054,2.354c0.488,0,0.893-0.097,1.163-0.262l-0.083-0.907c-0.24,0.112-0.525,0.173-0.825,0.173
		c-0.705,0-1.102-0.383-1.102-1.358c0-0.961,0.277-1.313,1.125-1.313c0.262,0,0.54,0.06,0.772,0.142L76.103,199.637z
		 M72.135,198.535c0-0.33-0.202-0.502-0.659-0.502c-0.45,0-0.667,0.18-0.667,0.502c0,0.367,0.217,0.495,0.667,0.495
		C71.933,199.029,72.135,198.865,72.135,198.535 M72.068,204.061v-4.566l-1.192,0.051v4.515H72.068z M70.036,202.637
		c0-1.568-2.078-1.156-2.078-1.846c0-0.232,0.21-0.382,0.593-0.382c0.338,0,0.84,0.075,1.215,0.232l0.097-0.952
		c-0.382-0.157-0.832-0.247-1.289-0.247c-1.17,0-1.725,0.584-1.725,1.402c0,1.59,2.107,1.17,2.107,1.898
		c0,0.27-0.195,0.458-0.66,0.458c-0.39,0-0.922-0.106-1.297-0.323l-0.12,0.959c0.382,0.21,0.877,0.315,1.424,0.315
		C69.533,204.151,70.036,203.544,70.036,202.637 M66.128,199.517h-1.161v2.918c0,0.465-0.241,0.682-0.751,0.682
		c-0.51,0-0.75-0.232-0.75-0.682v-2.918h-1.162v2.94c0,1.08,0.622,1.687,1.912,1.687c1.29,0,1.912-0.585,1.912-1.687V199.517z
		 M55.502,198.438v5.624h1.116v-2.857l-0.007-0.607l0.015-0.008l0.21,0.57l1.147,2.902h0.841l1.155-2.909l0.21-0.57l0.023,0.007
		l-0.015,0.608v2.864h1.154v-5.624h-1.395l-1.312,3.284l-0.21,0.563h-0.023l-0.21-0.563l-1.305-3.284H55.502z M52.418,204.061
		v-5.894l-1.176,0.052v5.842H52.418z M50.131,204.061v-5.894l-1.177,0.052v5.842H50.131z M47.978,199.517h-1.161v2.918
		c0,0.465-0.24,0.682-0.751,0.682c-0.51,0-0.75-0.232-0.75-0.682v-2.918h-1.162v2.94c0,1.08,0.622,1.687,1.912,1.687
		c1.29,0,1.912-0.585,1.912-1.687V199.517z M42.002,200.102c0,0.442-0.195,0.623-0.646,0.623h-1.05v-1.224h1.02
		C41.799,199.501,42.002,199.66,42.002,200.102 M42.144,202.329c0,0.533-0.225,0.698-0.728,0.698h-1.118v-1.366h1.088
		C41.934,201.661,42.144,201.856,42.144,202.329 M43.411,202.427c0-0.713-0.33-1.156-0.952-1.328v-0.015
		c0.45-0.187,0.75-0.577,0.75-1.208c0-0.892-0.615-1.439-1.838-1.439h-2.287v5.624h2.317
		C42.819,204.061,43.411,203.439,43.411,202.427 M34.907,202.824c-0.105,0.188-0.345,0.383-0.773,0.383
		c-0.66,0-0.863-0.323-0.863-1.388c0-1.02,0.233-1.35,0.871-1.35c0.345,0,0.622,0.142,0.765,0.345V202.824z M36.068,204.061v-5.894
		l-1.161,0.06v0.998l0.015,0.599l-0.015,0.015c-0.3-0.27-0.683-0.412-1.111-0.412c-1.155,0-1.724,0.847-1.724,2.339
		c0,1.628,0.569,2.385,1.739,2.385c0.548,0,0.946-0.172,1.216-0.487l0.022,0.008l0.113,0.389H36.068z M28.854,201.326
		c0.052-0.661,0.27-0.924,0.832-0.924c0.488,0,0.788,0.255,0.803,0.924H28.854z M29.942,204.145c0.577,0,1.102-0.12,1.484-0.293
		l-0.127-0.937c-0.39,0.15-0.787,0.226-1.215,0.226c-0.78,0-1.148-0.286-1.208-1.044h2.648c0.022-0.157,0.03-0.374,0.03-0.547
		c0-1.44-0.712-2.114-1.875-2.114c-1.365,0-2.002,0.846-2.002,2.294C27.677,203.319,28.374,204.145,29.942,204.145 M25.787,200.237
		c0,0.607-0.225,0.78-0.788,0.78h-0.78v-1.531h0.802C25.577,199.486,25.787,199.667,25.787,200.237 M27.106,200.184
		c0-1.2-0.697-1.747-2.092-1.747h-2.062v5.624h1.267v-2.1h0.795l0.983,2.1h1.477l-1.312-2.347
		C26.769,201.527,27.106,200.973,27.106,200.184"/>
	<path clip-path="url(#SVGID_2_)" fill="#FFFFFF" d="M95.067,190.826c0.052-0.661,0.27-0.924,0.833-0.924
		c0.488,0,0.788,0.255,0.803,0.924H95.067z M96.155,193.645c0.578,0,1.102-0.12,1.485-0.293l-0.128-0.937
		c-0.389,0.15-0.787,0.226-1.214,0.226c-0.781,0-1.149-0.286-1.209-1.044h2.648c0.022-0.157,0.03-0.374,0.03-0.547
		c0-1.44-0.712-2.114-1.875-2.114c-1.365,0-2.002,0.846-2.002,2.294C93.89,192.819,94.587,193.645,96.155,193.645 M93.207,193.561
		v-2.895c0-1.095-0.562-1.739-1.522-1.739c-0.383,0-0.795,0.105-1.133,0.39l-0.022-0.015l0.015-0.6v-1.035l-1.162,0.06v5.834h1.162
		v-3.255c0.142-0.195,0.435-0.345,0.772-0.345c0.496,0,0.728,0.24,0.728,0.705v2.895H93.207z M88.79,189.076l-0.03-1.139h-4.237
		l-0.03,1.139h1.508v4.485h1.274v-4.485H88.79z M82.235,189.887v-0.869h-1.013v-1.11l-0.914,0.083l-0.195,1.027h-0.562v0.869h0.51
		v2.363c0,0.863,0.442,1.387,1.349,1.387c0.322,0,0.622-0.06,0.78-0.127l-0.068-0.847c-0.082,0.03-0.24,0.053-0.36,0.053
		c-0.36,0-0.54-0.151-0.54-0.503v-2.326H82.235z M76.828,188.891h0.022l0.15,0.592l0.54,1.928h-1.432l0.562-1.928L76.828,188.891z
		 M78.155,193.561h1.41l-1.965-5.624h-1.507l-1.943,5.624h1.335l0.315-1.095h2.04L78.155,193.561z M70.461,192.324
		c-0.105,0.188-0.345,0.383-0.773,0.383c-0.661,0-0.863-0.323-0.863-1.388c0-1.02,0.232-1.35,0.87-1.35
		c0.346,0,0.623,0.142,0.766,0.345V192.324z M71.622,193.561v-5.894l-1.161,0.06v0.998l0.015,0.599l-0.015,0.015
		c-0.3-0.27-0.683-0.412-1.111-0.412c-1.155,0-1.724,0.847-1.724,2.339c0,1.628,0.569,2.385,1.739,2.385
		c0.548,0,0.946-0.172,1.216-0.487l0.022,0.008l0.113,0.389H71.622z M64.407,190.826c0.053-0.661,0.27-0.924,0.833-0.924
		c0.488,0,0.788,0.255,0.803,0.924H64.407z M65.495,193.645c0.578,0,1.103-0.12,1.485-0.293l-0.127-0.937
		c-0.39,0.15-0.787,0.226-1.215,0.226c-0.78,0-1.148-0.286-1.208-1.044h2.647c0.023-0.157,0.03-0.374,0.03-0.547
		c0-1.44-0.712-2.114-1.874-2.114c-1.365,0-2.002,0.846-2.002,2.294C63.231,192.819,63.928,193.645,65.495,193.645 M61.318,192.324
		c-0.105,0.188-0.345,0.383-0.773,0.383c-0.66,0-0.863-0.323-0.863-1.388c0-1.02,0.233-1.35,0.871-1.35
		c0.345,0,0.623,0.142,0.765,0.345V192.324z M62.48,193.561v-5.894l-1.162,0.06v0.998l0.015,0.599l-0.015,0.015
		c-0.3-0.27-0.683-0.412-1.11-0.412c-1.155,0-1.725,0.847-1.725,2.339c0,1.628,0.57,2.385,1.74,2.385
		c0.548,0,0.945-0.172,1.215-0.487l0.023,0.008l0.112,0.389H62.48z M56.547,193.561v-2.28c0-0.757,0.45-1.2,1.058-1.2
		c0.18,0,0.352,0.03,0.495,0.075l0.075-1.147c-0.12-0.037-0.293-0.067-0.495-0.067c-0.518,0-0.96,0.27-1.245,0.817h-0.022
		l-0.105-0.757l-0.93,0.045v4.514H56.547z M51.702,191.305c0-1.11,0.233-1.41,0.878-1.41c0.638,0,0.871,0.3,0.871,1.41
		c0,1.11-0.233,1.411-0.871,1.411C51.943,192.715,51.702,192.423,51.702,191.305 M54.657,191.305c0-1.665-0.629-2.369-2.077-2.369
		c-1.44,0-2.084,0.704-2.084,2.369c0,1.673,0.644,2.362,2.084,2.362C54.028,193.667,54.657,192.977,54.657,191.305 M50.082,189.137
		c-0.284-0.113-0.712-0.195-1.095-0.195c-1.454,0-2.076,0.847-2.076,2.355c0,1.59,0.712,2.354,2.054,2.354
		c0.488,0,0.893-0.097,1.162-0.262l-0.082-0.907c-0.24,0.112-0.525,0.173-0.825,0.173c-0.705,0-1.102-0.383-1.102-1.358
		c0-0.961,0.277-1.313,1.125-1.313c0.262,0,0.54,0.06,0.772,0.142L50.082,189.137z M43.693,190.826
		c0.052-0.661,0.27-0.924,0.832-0.924c0.488,0,0.788,0.255,0.803,0.924H43.693z M44.781,193.645c0.577,0,1.102-0.12,1.484-0.293
		l-0.127-0.937c-0.39,0.15-0.787,0.226-1.215,0.226c-0.78,0-1.148-0.286-1.208-1.044h2.648c0.022-0.157,0.03-0.374,0.03-0.547
		c0-1.44-0.712-2.114-1.875-2.114c-1.365,0-2.002,0.846-2.002,2.294C42.516,192.819,43.213,193.645,44.781,193.645 M40.626,189.737
		c0,0.607-0.225,0.78-0.788,0.78h-0.78v-1.531h0.802C40.416,188.986,40.626,189.167,40.626,189.737 M41.945,189.684
		c0-1.2-0.697-1.747-2.092-1.747h-2.062v5.624h1.267v-2.1h0.795l0.983,2.1h1.477l-1.312-2.347
		C41.608,191.027,41.945,190.473,41.945,189.684"/>
	<path clip-path="url(#SVGID_2_)" fill="#FFFFFF" d="M105.327,181.638c0-1.568-2.078-1.156-2.078-1.846
		c0-0.232,0.21-0.382,0.593-0.382c0.338,0,0.84,0.075,1.215,0.232l0.097-0.952c-0.382-0.157-0.831-0.247-1.289-0.247
		c-1.17,0-1.725,0.584-1.725,1.402c0,1.59,2.108,1.17,2.108,1.898c0,0.27-0.196,0.457-0.661,0.457c-0.39,0-0.922-0.105-1.297-0.322
		l-0.12,0.959c0.382,0.21,0.877,0.315,1.425,0.315C104.825,183.152,105.327,182.545,105.327,181.638 M98.914,180.325
		c0.053-0.66,0.27-0.923,0.833-0.923c0.488,0,0.788,0.255,0.803,0.923H98.914z M100.002,183.145c0.578,0,1.103-0.12,1.485-0.293
		l-0.128-0.937c-0.389,0.15-0.786,0.225-1.214,0.225c-0.781,0-1.148-0.285-1.208-1.043h2.647c0.023-0.157,0.03-0.375,0.03-0.547
		c0-1.44-0.712-2.115-1.874-2.115c-1.365,0-2.002,0.847-2.002,2.295C97.738,182.32,98.435,183.145,100.002,183.145 M97.054,183.062
		v-2.895c0-1.132-0.607-1.739-1.567-1.739c-0.472,0-0.915,0.157-1.253,0.45l-0.172-0.39l-0.839,0.052v4.522h1.169v-3.255
		c0.157-0.218,0.473-0.345,0.765-0.345c0.481,0,0.736,0.203,0.736,0.705v2.895H97.054z M92.337,178.518h-1.162v2.917
		c0,0.465-0.24,0.683-0.75,0.683c-0.511,0-0.751-0.233-0.751-0.683v-2.917h-1.161v2.94c0,1.08,0.622,1.687,1.912,1.687
		s1.912-0.585,1.912-1.687V178.518z M88.122,178.577l-0.03-1.139h-4.237l-0.03,1.139h1.508v4.485h1.274v-4.485H88.122z
		 M80.599,183.062v-3.682h0.968v-0.862h-0.968v-0.165c0-0.293,0.173-0.473,0.63-0.473c0.15,0,0.3,0.015,0.435,0.045l0.068-0.75
		c-0.195-0.06-0.48-0.097-0.735-0.097c-1.087,0-1.559,0.562-1.559,1.245v0.195h-0.57v0.862h0.57v3.682H80.599z M77.075,180.25
		c0,1.418-0.3,1.785-1.148,1.785c-0.855,0-1.163-0.36-1.163-1.785c0-1.425,0.301-1.771,1.156-1.771
		C76.783,178.479,77.075,178.825,77.075,180.25 M78.394,180.25c0-2.003-0.712-2.902-2.474-2.902c-1.755,0-2.482,0.899-2.482,2.902
		c0,2.003,0.749,2.917,2.482,2.917C77.682,183.167,78.394,182.29,78.394,180.25 M70.7,183.062v-2.895
		c0-1.132-0.607-1.739-1.567-1.739c-0.473,0-0.916,0.157-1.253,0.45l-0.173-0.39l-0.839,0.052v4.522h1.169v-3.255
		c0.158-0.218,0.473-0.345,0.766-0.345c0.48,0,0.735,0.203,0.735,0.705v2.895H70.7z M63.192,180.805c0-1.11,0.233-1.41,0.878-1.41
		c0.638,0,0.871,0.3,0.871,1.41s-0.233,1.41-0.871,1.41S63.192,181.923,63.192,180.805 M66.147,180.805
		c0-1.665-0.629-2.37-2.077-2.37c-1.44,0-2.084,0.705-2.084,2.37c0,1.673,0.644,2.362,2.084,2.362
		C65.518,183.167,66.147,182.478,66.147,180.805 M61.19,177.535c0-0.33-0.203-0.502-0.66-0.502c-0.449,0-0.667,0.18-0.667,0.502
		c0,0.367,0.218,0.494,0.667,0.494C60.987,178.029,61.19,177.865,61.19,177.535 M61.122,183.062v-4.567l-1.191,0.052v4.515H61.122z
		 M59.157,179.387v-0.869h-1.012v-1.11l-0.915,0.082l-0.194,1.028h-0.563v0.869h0.51v2.363c0,0.863,0.442,1.387,1.349,1.387
		c0.323,0,0.623-0.06,0.78-0.127l-0.067-0.847c-0.083,0.03-0.24,0.052-0.36,0.052c-0.36,0-0.54-0.15-0.54-0.502v-2.326H59.157z
		 M56.06,178.638c-0.285-0.113-0.713-0.195-1.095-0.195c-1.455,0-2.077,0.847-2.077,2.354c0,1.591,0.712,2.355,2.054,2.355
		c0.488,0,0.893-0.097,1.163-0.262l-0.083-0.907c-0.24,0.112-0.525,0.172-0.825,0.172c-0.705,0-1.102-0.382-1.102-1.358
		c0-0.96,0.277-1.312,1.125-1.312c0.262,0,0.54,0.06,0.772,0.142L56.06,178.638z M49.67,180.325c0.052-0.66,0.27-0.923,0.833-0.923
		c0.487,0,0.788,0.255,0.803,0.923H49.67z M50.758,183.145c0.578,0,1.102-0.12,1.484-0.293l-0.127-0.937
		c-0.39,0.15-0.787,0.225-1.215,0.225c-0.78,0-1.148-0.285-1.208-1.043h2.648c0.022-0.157,0.03-0.375,0.03-0.547
		c0-1.44-0.712-2.115-1.875-2.115c-1.365,0-2.002,0.847-2.002,2.295C48.493,182.32,49.19,183.145,50.758,183.145 M47.675,183.062
		v-5.894l-1.177,0.052v5.842H47.675z M42.987,180.325c0.053-0.66,0.27-0.923,0.833-0.923c0.488,0,0.788,0.255,0.803,0.923H42.987z
		 M44.075,183.145c0.578,0,1.103-0.12,1.485-0.293l-0.127-0.937c-0.39,0.15-0.787,0.225-1.215,0.225
		c-0.78,0-1.148-0.285-1.208-1.043h2.647c0.023-0.157,0.03-0.375,0.03-0.547c0-1.44-0.712-2.115-1.874-2.115
		c-1.365,0-2.002,0.847-2.002,2.295C41.811,182.32,42.508,183.145,44.075,183.145 M41.33,181.375c0-1.905-2.588-1.5-2.588-2.378
		c0-0.3,0.188-0.54,0.886-0.54c0.428,0,0.893,0.09,1.357,0.24l0.158-1.064c-0.435-0.18-1.027-0.293-1.575-0.293
		c-1.425,0-2.04,0.772-2.04,1.725c0,1.883,2.588,1.508,2.588,2.393c0,0.39-0.27,0.615-0.886,0.615c-0.555,0-1.065-0.15-1.559-0.413
		l-0.165,1.087c0.487,0.263,1.087,0.42,1.739,0.42C40.558,183.167,41.33,182.485,41.33,181.375 M32.436,178.39h0.022l0.15,0.593
		l0.54,1.927h-1.433l0.563-1.927L32.436,178.39z M33.763,183.062h1.41l-1.965-5.624H31.7l-1.942,5.624h1.335l0.315-1.095h2.04
		L33.763,183.062z"/>
	<path clip-path="url(#SVGID_2_)" fill="#FFFFFF" d="M81.513,147.551c0.122-1.568,0.392-1.837,1.323-1.837
		c0.857,0,1.2,0.441,1.249,1.837H81.513z M83.791,157.082c1.887,0,3.724-0.368,4.876-0.809l-0.564-4.091
		c-1.176,0.343-2.401,0.514-3.65,0.514c-1.789,0-2.646-0.49-2.867-1.739h7.252c0.098-0.735,0.147-1.666,0.147-2.475
		c0-4.802-2.205-6.982-6.198-6.982c-4.631,0-6.713,2.793-6.713,7.766C76.074,154.289,78.524,157.082,83.791,157.082 M74.775,156.837
		v-19.135l-5.365,0.245v18.89H74.775z M62.476,152.035c0,0.686-0.539,1.004-1.151,1.004c-0.613,0-0.956-0.343-0.956-1.151
		c0-0.931,0.368-1.299,1.103-1.299c0.416,0,0.71,0.049,1.004,0.123V152.035z M63.677,156.837h4.067v-9.016
		c0-4.312-1.544-6.321-6.272-6.321c-1.936,0-3.724,0.318-5.194,0.931l0.416,4.067c1.348-0.49,2.181-0.711,3.749-0.711
		s2.033,0.539,2.033,1.299v0.22c-0.588-0.122-1.151-0.22-2.033-0.22c-3.063,0-5.072,2.033-5.072,4.851
		c0,3.405,1.74,5.145,4.508,5.145c1.421,0,2.573-0.466,3.455-1.323L63.677,156.837z M54.661,151.128
		c0-5.929-6.982-5.414-6.982-7.227c0-0.515,0.196-0.833,1.739-0.833c1.127,0,2.572,0.22,4.042,0.612l0.613-4.655
		c-1.396-0.563-3.308-0.857-5.023-0.857c-4.802,0-6.884,2.67-6.884,6.002c0,6.027,7.007,5.562,7.007,7.301
		c0,0.588-0.367,0.907-1.593,0.907c-1.567,0-3.111-0.466-4.655-1.176l-0.71,4.704c1.568,0.833,3.577,1.249,5.512,1.249
		C52.039,157.155,54.661,154.828,54.661,151.128"/>
	<path clip-path="url(#SVGID_2_)" fill="#FFFFFF" d="M102.668,132.337v-7.693c0-1.74,0.907-2.621,2.45-2.621
		c0.588,0,1.201,0.122,1.691,0.244l0.294-5.071c-0.343-0.123-0.956-0.22-1.666-0.22c-1.299,0-2.499,0.563-3.381,1.984h-0.074
		l-0.392-1.788l-4.263,0.171v14.994H102.668z M87.846,124.864c0-3.258,0.343-3.724,1.372-3.724c1.053,0,1.372,0.491,1.372,3.724
		c0,3.185-0.319,3.7-1.348,3.7S87.846,128.098,87.846,124.864 M96.078,124.864c0-5.659-2.083-7.913-6.86-7.913
		c-4.704,0-6.885,2.254-6.885,7.913c0,5.685,2.156,7.816,6.885,7.816C93.971,132.68,96.078,130.549,96.078,124.864 M82.235,118.96
		l-0.073-4.998h-12.03v18.375h5.733v-6.297h5.219l0.049-4.728h-5.268v-2.352H82.235z M63.983,121.043v-3.798h-2.67v-3.455
		l-4.19,0.368l-0.857,3.087h-1.397v3.798h1.127v6.565c0,2.989,1.544,4.974,4.876,4.974c1.225,0,2.376-0.221,2.891-0.466
		l-0.245-3.748c-0.221,0.098-0.686,0.147-1.005,0.147c-0.882,0-1.2-0.319-1.2-1.054v-6.418H63.983z M46.196,124.864
		c0-3.258,0.343-3.724,1.372-3.724c1.054,0,1.372,0.491,1.372,3.724c0,3.185-0.318,3.7-1.347,3.7S46.196,128.098,46.196,124.864
		 M54.428,124.864c0-5.659-2.082-7.913-6.86-7.913c-4.704,0-6.884,2.254-6.884,7.913c0,5.685,2.156,7.816,6.884,7.816
		C52.321,132.68,54.428,130.549,54.428,124.864 M39.41,132.337v-18.375h-5.047l-0.025,6.003l0.05,1.959l-0.05,0.025l-5.022-7.987
		h-4.728v18.375h5.047v-6.689l-0.025-1.984l0.049-0.025l1.054,1.691l4.63,7.007H39.41z"/>
	<path clip-path="url(#SVGID_2_)" fill="#FFFFFF" d="M97.952,101.271h14.308v-3.675H97.952V101.271z M91.851,102.864
		c0-5.023-5.586-4.116-5.586-5.562c0-0.343,0.245-0.514,0.858-0.514c0.955,0,2.621,0.22,3.773,0.637l0.367-4.141
		c-1.176-0.466-2.646-0.784-4.14-0.784c-4.092,0-5.905,2.254-5.905,5.023c0,5.341,5.733,4.311,5.733,5.781
		c0,0.368-0.367,0.613-1.151,0.613c-1.029,0-2.695-0.245-3.871-0.809l-0.466,4.215c1.274,0.563,2.744,0.808,4.435,0.808
		C90.161,108.131,91.851,106.049,91.851,102.864 M80.655,96.543v-3.798h-2.671v-3.454l-4.189,0.367l-0.858,3.087h-1.396v3.798h1.127
		v6.565c0,2.989,1.543,4.974,4.875,4.974c1.225,0,2.377-0.22,2.891-0.466l-0.245-3.748c-0.22,0.098-0.686,0.147-1.004,0.147
		c-0.882,0-1.201-0.319-1.201-1.054v-6.418H80.655z M63.652,98.551c0.122-1.568,0.392-1.837,1.323-1.837
		c0.857,0,1.2,0.441,1.249,1.837H63.652z M65.93,108.082c1.887,0,3.724-0.367,4.876-0.808l-0.564-4.092
		c-1.176,0.343-2.401,0.514-3.65,0.514c-1.789,0-2.646-0.49-2.867-1.739h7.252c0.098-0.735,0.147-1.666,0.147-2.475
		c0-4.802-2.205-6.982-6.198-6.982c-4.631,0-6.713,2.793-6.713,7.767C58.213,105.289,60.663,108.082,65.93,108.082 M57.454,102.864
		c0-5.023-5.586-4.116-5.586-5.562c0-0.343,0.245-0.514,0.857-0.514c0.956,0,2.622,0.22,3.773,0.637l0.368-4.141
		C55.69,92.818,54.22,92.5,52.725,92.5c-4.091,0-5.904,2.254-5.904,5.023c0,5.341,5.733,4.311,5.733,5.781
		c0,0.368-0.368,0.613-1.152,0.613c-1.029,0-2.695-0.245-3.871-0.809l-0.465,4.215c1.274,0.563,2.744,0.808,4.434,0.808
		C55.763,108.131,57.454,106.049,57.454,102.864 M46.453,102.864c0-5.023-5.586-4.116-5.586-5.562c0-0.343,0.245-0.514,0.857-0.514
		c0.956,0,2.622,0.22,3.773,0.637l0.368-4.141c-1.176-0.466-2.646-0.784-4.141-0.784c-4.091,0-5.904,2.254-5.904,5.023
		c0,5.341,5.733,4.311,5.733,5.781c0,0.368-0.368,0.613-1.152,0.613c-1.029,0-2.695-0.245-3.871-0.809l-0.465,4.215
		c1.274,0.563,2.744,0.808,4.434,0.808C44.762,108.131,46.453,106.049,46.453,102.864 M26.511,94.534h0.073l0.319,1.984l0.759,3.895
		h-2.303l0.784-3.92L26.511,94.534z M29.083,107.837h6.37l-5.341-18.375H23.08l-5.218,18.375h6.027l0.539-2.793h4.116
		L29.083,107.837z"/>
	<path clip-path="url(#SVGID_2_)" fill="#FFFFFF" d="M109.136,78.364c0-5.023-5.586-4.116-5.586-5.562
		c0-0.343,0.245-0.514,0.858-0.514c0.955,0,2.621,0.22,3.773,0.636l0.367-4.14c-1.176-0.465-2.646-0.784-4.14-0.784
		c-4.092,0-5.905,2.254-5.905,5.023c0,5.341,5.733,4.311,5.733,5.781c0,0.368-0.367,0.613-1.151,0.613
		c-1.029,0-2.695-0.245-3.871-0.809l-0.466,4.215c1.274,0.563,2.744,0.808,4.435,0.808
		C107.446,83.631,109.136,81.549,109.136,78.364 M97.303,68.245h-5.292v9.53c0,0.956-0.318,1.324-1.176,1.324
		c-0.882,0-1.2-0.417-1.2-1.324v-9.53h-5.317V77.8c0,3.797,2.132,5.782,6.493,5.782s6.492-1.837,6.492-5.782V68.245z M74.91,75.864
		c0-3.258,0.343-3.724,1.372-3.724c1.054,0,1.372,0.491,1.372,3.724c0,3.185-0.318,3.7-1.347,3.7S74.91,79.099,74.91,75.864
		 M83.142,75.864c0-5.659-2.082-7.913-6.86-7.913c-4.704,0-6.884,2.254-6.884,7.913c0,5.685,2.156,7.816,6.884,7.816
		C81.035,83.68,83.142,81.549,83.142,75.864 M68.026,65.55c0-1.323-0.833-2.009-2.793-2.009c-1.911,0-2.818,0.686-2.818,2.009
		c0,1.421,0.907,1.984,2.818,1.984C67.193,67.534,68.026,66.849,68.026,65.55 M67.952,83.337v-15.19l-5.439,0.221v14.969H67.952z
		 M56.78,83.337v-7.693c0-1.739,0.907-2.621,2.45-2.621c0.588,0,1.201,0.122,1.691,0.244l0.294-5.071
		c-0.343-0.123-0.956-0.22-1.666-0.22c-1.299,0-2.499,0.563-3.381,1.984h-0.074l-0.392-1.788l-4.263,0.171v14.994H56.78z
		 M44.58,78.535c0,0.686-0.539,1.004-1.152,1.004c-0.612,0-0.955-0.343-0.955-1.151c0-0.931,0.367-1.298,1.102-1.298
		c0.417,0,0.711,0.048,1.005,0.122V78.535z M45.78,83.337h4.067v-9.016c0-4.312-1.543-6.321-6.272-6.321
		c-1.935,0-3.724,0.319-5.194,0.931l0.417,4.067c1.347-0.49,2.18-0.71,3.748-0.71s2.034,0.539,2.034,1.298v0.22
		c-0.588-0.122-1.152-0.22-2.034-0.22c-3.062,0-5.071,2.034-5.071,4.851c0,3.406,1.739,5.145,4.508,5.145
		c1.421,0,2.572-0.466,3.454-1.323L45.78,83.337z M32.403,64.962l-2.058,10.192l-0.343,1.936h-0.074l-2.376-12.128h-6.297
		l5.244,18.375h6.541l5.267-18.375H32.403z"/>
	<path clip-path="url(#SVGID_2_)" fill="#FFFFFF" d="M95.123,41.422c-0.242-0.26-0.602-0.443-0.727-0.776
		c-0.215-0.51-0.114-1.195-0.608-1.553c-0.456-0.092-0.988,0.017-1.337-0.342c-0.189-0.174-0.266-0.424-0.195-0.679
		c0.288-0.613,0.468-1.33,0.315-2.069c0.028-0.24-0.283-0.5,0-0.701c0.864,0.234,1.998,0.32,2.77-0.173
		c0.716-0.474,1.216-1.207,1.167-2.091c-0.189-1.229-1.031-2.206-2.014-3.085c-0.125-0.11-0.227-0.224-0.217-0.386
		c0.022-0.092,0.032-0.207,0.14-0.245c0.516-0.032,1.017-0.103,1.461-0.314c0.784-0.43,0.989-1.292,0.876-2.141
		c-0.033-0.054-0.029-0.163-0.12-0.146c-0.217,0.228-0.467,0.358-0.732,0.462c-0.991,0.135-1.924,0.391-2.646,1.167
		c-0.245,0.304-0.272,0.859-0.077,1.19c0.609,1.168,2.032,1.873,2.357,3.16c0.185,0.555-0.059,1.049-0.483,1.407
		c-0.647,0.403-1.564,0.331-2.215,0c-1.542-0.781-2.836-2.173-4.541-2.553c-0.989-0.119-1.825-0.597-2.58-1.287
		c-0.641-0.493-1.471-0.565-2.21-0.825c-0.68-0.717-1.487-1.129-2.336-1.456c-0.477-0.212-1.076-0.147-1.482-0.537
		c-0.268-0.402-0.679-0.761-1.064-1.021c-0.593-0.338-1.451-0.614-2.092-0.245c-0.051,0.043-0.103,0.084-0.154,0.128
		c-1.323-2.225-3.273-4.036-5.602-5.19v-5.795l-8.832,1.85v2.875c-3.631,0.803-6.714,3.082-8.585,6.173
		c-0.446-0.016-0.893,0.068-1.257,0.278c-1.032,0.909-2.314,1.228-3.525,1.723c-0.674,0.331-1.097,1.087-1.771,1.412
		c-0.923-0.015-1.738,0.224-2.407,0.826c-0.553,0.647-1.21,1.14-1.992,1.287c-1.396,0.043-2.548,0.645-3.552,1.63
		c-0.983,0.63-1.944,1.46-3.231,1.189c-0.485-0.131-0.95-0.57-1.12-1.043c-0.304-1.01,0.316-1.842,1.071-2.482
		c0.716-0.641,1.732-1.292,1.51-2.378c-0.169-0.924-1.196-1.103-1.946-1.268c-0.776-0.014-1.374-0.449-1.992-0.823
		c-0.147,0.228-0.202,0.488-0.174,0.776c0.06,0.717,0.646,1.456,1.336,1.678c0.449,0.256,1.065-0.109,1.483,0.218
		c0.124,0.119,0.075,0.244,0.049,0.39c-0.842,0.853-2.119,1.695-2.331,2.891c-0.168,0.961,0.174,1.861,0.924,2.481
		c0.814,0.629,2.129,0.771,3.085,0.342c0.114-0.044,0.266-0.037,0.342,0.092l0.097,1.314c0.049,0.613,0.539,1.07,0.462,1.701
		c-0.304,0.342-0.722,0.505-1.096,0.733l-0.972,0.097c-0.272,0.213-0.376,0.539-0.463,0.848c-0.032,0.701-0.825,1.124-1.336,1.461
		c-0.179,0.352-0.505,0.843-0.972,0.825c-0.325,0.374-0.347,0.875-0.461,1.337c0.445,0.043,0.863,0.222,1.335,0.119
		c0.581-0.125,0.653-0.755,0.972-1.139c0.381-0.398,0.892,0.043,1.315-0.1c0.537-0.266,1.06-0.592,1.505-1.09
		c1.02-0.517,2.182,0.308,3.16-0.246c0.435-0.504,1.152-0.417,1.483-1.043c0.179-0.483,0.538-0.89,0.609-1.411
		c-0.104-0.103-0.201-0.223-0.342-0.244c-0.115,0.223-0.256,0.428-0.386,0.636c-0.619,1.019-1.716,1.325-2.797,1.433
		c-1.435-0.033-2.733,0.255-3.672,1.434h-0.098c-0.065-0.021-0.103-0.055-0.119-0.125c0.494-0.875,1.384-1.5,2.335-1.63
		c1.494-0.145,3.167-0.184,3.987-1.652c0.526-0.786,0.37-1.856,0.603-2.769c0.01-0.108,0.082-0.201,0.195-0.196
		c0.06,0.027,0.152,0.044,0.175,0.125c-0.105,0.75-0.143,1.564,0.119,2.26c0.467,0.619,1.379,0.282,1.993,0.168
		c1.168-0.25,2.205,0.37,3.4,0.12c0.13-0.06,0.244-0.136,0.195-0.315c-0.048-0.262-0.206-0.473-0.147-0.777
		c0.039-0.086,0.125-0.146,0.223-0.146c0.18,0.097,0.147,0.325,0.218,0.488c0.472,1.379,2.503,1.304,2.623,2.917
		c-0.18,0.591-0.815,0.815-1.336,0.944c-0.968,0.223-1.18-0.954-1.728-1.455c-0.477-0.293-1.113-0.075-1.624,0
		c-0.129,0.049-0.173,0.18-0.146,0.315l0.581,0.945c0.212,0.452,0.781-0.081,1.021,0.369c0.223,0.489,0.696,1.076,1.287,1.093
		c0.891-0.186,1.684-0.577,2.504-0.924c0.315-0.407,0.917-0.114,1.315-0.343c0.127-0.049,0.208-0.152,0.28-0.266
		c2.453,3.223,6.33,5.31,10.684,5.31c4.492,0,8.473-2.219,10.909-5.618c0.018,0.07,0.035,0.14,0.047,0.21
		c0.109,0.502,0.642,0.186,0.972,0.343c0.447,0.657,1.217,0.62,1.854,0.874c0.45,0.152,0.89,0.409,1.406,0.343
		c0.488-0.147,0.787-0.663,0.824-1.146c0.158-0.234,0.549-0.027,0.729-0.267c0.216-0.335,0.5-0.629,0.636-0.994
		c-0.207-0.292-0.636-0.147-0.95-0.222c-0.077,0.033-0.207,0.027-0.268,0.027l-0.02-0.027c-0.701-0.044-0.714,0.76-1.072,1.144
		c-0.135,0.16-0.348,0.138-0.536,0.17c-0.571-0.207-1.461-0.288-1.504-1.092c0.221-0.472,0.727-0.89,1.14-1.216
		c0.471-0.092,0.9-0.347,1.216-0.777c0.244-0.222,0.147-0.718,0.581-0.732c0.195,0.308,0,0.705-0.147,0.998
		c0.816,0.094,1.608-0.042,2.364-0.173c1.155-0.278,2.242,0.353,3.35-0.07c0.56-0.279,0.598-0.909,0.658-1.456l-0.028-0.028
		l0.028-0.021c-0.006-0.293-0.082-0.554-0.12-0.831c-0.018-0.126-0.071-0.298,0.022-0.413c0.087-0.049,0.147-0.038,0.217,0.028
		c0.462,1.032,0.25,2.345,0.825,3.329c0.401,0.836,1.222,1.433,2.14,1.482c0.038,0.006,0.077-0.054,0.098,0
		c1.466-0.293,2.749,0.293,3.623,1.406v0.077c-0.055,0.055-0.103,0.126-0.195,0.098c-0.164-0.212-0.381-0.299-0.559-0.49
		c-0.812-0.781-1.985-0.83-3.113-0.7c-1.162,0.033-2.239-0.945-2.646-1.971c-0.098-0.103-0.091-0.326-0.271-0.315
		c-0.054,0.039-0.071,0.097-0.092,0.147c0.071,0.76,0.175,1.499,0.7,2.063c0.5,0.244,0.89,0.744,1.461,0.805
		c0.8-0.191,1.738-0.105,2.455,0.216c0.565,0.218,1.022,0.701,1.531,1.044c0.288,0.14,0.674,0.07,0.924-0.12
		c0.646-0.174,0.75,0.597,1.189,0.901c0.37,0.283,0.913,0.163,1.386,0.19l0.075-0.043c-0.064-0.446-0.157-0.88-0.341-1.265
		C95.755,42.45,95.439,41.831,95.123,41.422 M76.82,28.785c0.148-0.006,0.31-0.016,0.365,0.147c0.081,0.287-0.255,0.472-0.434,0.657
		c-0.599,0.451-1.142,1.069-1.461,1.679h-0.05C75.192,30.236,75.952,29.343,76.82,28.785 M62.805,19.194l7.123-1.439l0.005,2.984
		c-1.571-0.646-3.288-1.004-5.09-1.004c-0.693,0-1.375,0.054-2.041,0.157L62.805,19.194z M53.732,29.805
		c0.087-0.01,0.19-0.048,0.266,0c0.239,0.174,0.342,0.446,0.462,0.685c0.13,0.456,0.179,1.032,0.048,1.505l-0.07,0.048
		c-0.07-0.114-0.07-0.26-0.098-0.39c-0.097-0.576-0.353-1.092-0.678-1.581C53.65,29.974,53.662,29.877,53.732,29.805 M77.792,38.094
		l-0.972,1.315L76.68,39.7c-0.136,0.285-0.05,0.691-0.077,0.996c-0.238-0.127-0.254-0.425-0.34-0.658
		c-0.224-0.94,0.705-1.461,1.019-2.211c-0.206-0.087-0.392-0.221-0.629-0.243c-0.496,0.597-0.787,1.275-1.168,1.922
		c-0.028,0.215-0.006,0.418,0.035,0.617c-2.281,3.481-6.214,5.785-10.677,5.785c-4.241,0-8.005-2.082-10.326-5.277
		c0.162-0.292,0.329-0.581,0.284-0.956c-0.01-0.507-0.488-0.821-0.656-1.266c-0.098-0.228-0.19-0.479-0.316-0.679
		c-0.26-0.103-0.597-0.224-0.852-0.022c0.315,0.669,0.722,1.297,1.048,1.967c0.077,0.553-0.228,1.015-0.609,1.411
		c-0.054,0.055-0.129,0.006-0.173-0.05c0.119-0.401,0.277-0.813,0.246-1.237c-0.381-0.739-0.886-1.422-1.262-2.167
		c0.011-0.131,0.054-0.277,0.191-0.337c0.381-0.185,0.874-0.114,1.167-0.44c0.36-0.618,0.608-1.282,0.679-2.015
		c0.044-0.037,0.082-0.097,0.147-0.076c0.07,0.043,0.07,0.114,0.097,0.174c0.142,0.82-0.092,1.548-0.461,2.184
		c-0.055,0.076-0.005,0.157,0.048,0.222c0.273,0.119,0.561-0.022,0.827-0.049c0.499-0.358,1.215-0.201,1.775-0.412
		c0,0.058,0.098,0.07,0.071,0.141c-0.282,0.309-0.407,0.696-0.484,1.097c-0.336,0.38-0.852,0.69-0.852,1.217
		c0.087,0.216,0.277,0,0.413,0c0.092,0,0.147,0.103,0.124,0.19c-0.13,0.244-0.39,0.434-0.39,0.732c0.13,0.32,0,0.822,0.439,0.946
		c1.005,0.179,1.728-0.626,2.744-0.581c0.771,0.195,1.433-0.157,1.944-0.733c0.141-0.078,0.26,0.037,0.391,0.076
		c0.548,0.58,1.184,0.929,1.923,1.043c0.228,0.031,0.516,0.054,0.728-0.023c0.048-0.053,0.016-0.146-0.027-0.195
		c-0.543-0.213-1.077-0.516-1.484-1.021c-0.228-0.629-0.532-1.238-0.994-1.775c-0.037-0.034-0.037-0.121,0.022-0.143
		c0.521,0.125,0.962,0.652,1.195,1.114c0.423,0.651,1.059,1.189,1.869,1.119c0.097-0.027,0.244-0.017,0.216-0.169
		c-1.237-0.385-1.438-1.726-2.406-2.455c-0.472-1.173-0.896-2.362-1.113-3.644c-0.032-1.168-0.69-2.085-1.414-2.964
		c-1.139-1.728-2.926-2.711-4.418-3.988l-0.489-0.265c-0.192-0.114-0.41-0.205-0.64-0.269c1.766-2.783,4.58-4.838,7.88-5.608v4.277
		c-0.221-0.101-0.322-0.099-0.472-0.099c-1.499,0-2.815,1.396-2.815,2.324c0,0.631,0.499,0.997,1.165,0.997
		c0.733,0,1.617-0.382,2.266-1.063c0.515-0.547,0.697-1.095,0.697-2.076l0.015-4.529c0.665-0.106,1.347-0.164,2.042-0.164
		c1.809,0,3.53,0.379,5.09,1.06l0.002,1.7c-0.221-0.1-0.323-0.099-0.473-0.099c-1.498,0-2.814,1.394-2.814,2.325
		c0,0.632,0.5,0.997,1.165,0.997c0.734,0,1.617-0.382,2.265-1.063c0.516-0.549,0.699-1.096,0.699-2.077v-1.377
		c2.114,1.117,3.879,2.808,5.084,4.866c-1.639,1.26-3.397,2.231-4.945,3.69c-1.037,0.967-1.59,2.139-1.922,3.405
		c-0.775,2.216-0.955,4.888-3.302,6.246c-0.016,0.071,0.016,0.124,0.07,0.168c0.527,0.105,1.098-0.015,1.462-0.461
		c0.353-0.56,0.782-1.086,1.287-1.58h0.098c0.184,0.037,0.032,0.195,0.049,0.293c-0.707,0.673-0.719,1.677-1.657,2.211
		c-0.104,0.092-0.375,0.249-0.19,0.39c1.037,0.108,1.798-0.657,2.524-1.314l0.149-0.022c0.412,0.255,0.722,0.804,1.265,0.679
		c1.081-0.298,1.819,0.375,2.693,0.657c0.261,0.115,0.457-0.087,0.635-0.244c0.381-0.266,0.186-0.749,0.169-1.119l0.072-0.07
		c0.178-0.021,0.401,0.152,0.537-0.049c0.06-0.489-0.359-0.836-0.56-1.239c-0.108-0.798-1.027-1.261-1.167-2.042
		c0.043-0.033,0.076-0.092,0.123-0.098c0.372,0.218,0.675,0.582,1.044,0.799c0.56,0.283,1.233,0.271,1.897,0.293
		c0.102-0.022,0.102-0.124,0.096-0.217c-0.347-0.777-0.64-1.581-0.581-2.531c0.059-0.289-0.065-0.723,0.289-0.826
		c0.086,0.022,0.097,0.119,0.145,0.174c0.045,0.847,0.062,1.716,0.44,2.428c0.206,0.51,0.751,0.805,1.163,1.118
		C77.837,37.649,77.886,37.903,77.792,38.094 M59.369,35.129c-0.124-0.06-0.276-0.055-0.386,0.049l-0.39,0.46
		c-0.13-0.058-0.066-0.27-0.048-0.384c0.14-0.354,0.336-0.69,0.46-1.048c0.066-0.109,0.223-0.077,0.315-0.05
		c0.38,0.245,0.452,0.694,0.825,0.973c0.294,0.395,0.479,0.988,0.223,1.461c-0.075,0.005-0.167,0.102-0.223,0
		C60.201,35.976,59.842,35.481,59.369,35.129 M58.545,39.066c0.205-0.184,0.416-0.424,0.726-0.289l0.049,0.191
		c0.033,0.185-0.043,0.326-0.119,0.461c-0.255,0.072-0.521,0.181-0.804,0.099C58.326,39.353,58.495,39.219,58.545,39.066
		 M71.862,35.492c-0.054-0.065-0.077-0.164-0.168-0.19c-0.353-0.087-0.614,0.207-0.874,0.413c-0.43,0.261-0.555,0.695-0.658,1.119
		c-0.028,0.075-0.109,0.033-0.168,0.049c-0.218-0.216,0-0.488,0-0.734c0.218-0.739,1.054-1.152,1.456-1.819
		c0.428-0.016,0.482,0.473,0.685,0.727c0.053,0.207,0.319,0.467,0.048,0.658C72.037,35.743,71.905,35.618,71.862,35.492
		 M71.889,39.528c-0.178,0.055-0.363,0-0.536-0.022c-0.203-0.109-0.213-0.343-0.268-0.538c0.044-0.064,0.01-0.184,0.098-0.217
		c0.244,0.017,0.479,0.108,0.631,0.293C71.878,39.191,72.009,39.365,71.889,39.528 M51.298,40.674
		c0.033-0.12-0.059-0.185-0.092-0.271c-0.119-0.241-0.174-0.501-0.32-0.728c-0.309-0.012-0.662,0.01-0.972,0.075l-0.023-0.027
		c-0.086,0.044-0.195,0.016-0.292,0.027c-0.05,0.033-0.071,0.081-0.071,0.142c0.423,0.249,0.527,0.717,0.755,1.096
		C50.653,41.178,51.006,40.886,51.298,40.674 M79.815,39.821c-0.139-0.007-0.289,0.01-0.394,0l-0.02,0.021
		c-0.173-0.054-0.391,0.011-0.559-0.043c-0.186,0.239-0.31,0.533-0.245,0.847c0.109,0.196,0.341,0.201,0.51,0.294
		c0.184,0.01,0.451,0.096,0.582-0.076c0.131-0.31,0.233-0.631,0.292-0.972C79.938,39.837,79.883,39.809,79.815,39.821
		 M33.267,41.885c0.266,0.115,0.478-0.065,0.657-0.239c0.153-0.25,0.392-0.463,0.435-0.755c-0.077-0.184-0.305-0.358-0.484-0.245
		c-0.255,0.413-1.08,0.407-0.852,1.048C33.104,41.76,33.164,41.874,33.267,41.885 M96.025,40.625l-0.173-0.028
		c-0.114,0.104-0.375,0.174-0.316,0.391c0.251,0.337,0.425,0.891,0.903,0.947c0.155-0.072,0.353-0.11,0.433-0.289
		c0.024-0.126,0.083-0.234,0-0.343L96.025,40.625z M32.345,42.031c-0.344,0.206-0.332,0.602-0.316,0.973
		c-0.006,0.233-0.277,0.358-0.244,0.607c0.255,0.088,0.494,0.229,0.775,0.245c0.159-0.472,0.262-0.972,0.392-1.461l-0.44-0.433
		C32.447,41.962,32.399,42.01,32.345,42.031 M97.824,42.373c-0.089-0.14-0.191-0.286-0.342-0.363
		c-0.244-0.125-0.396,0.173-0.533,0.315c-0.038,0.37,0.145,0.711,0.218,1.068c0.047,0.17-0.011,0.409,0.146,0.511l0.727-0.217
		l0.027-0.194C97.775,43.204,97.938,42.733,97.824,42.373"/>
</g>
</svg>
